<svg width="70" height="70" viewBox="0 0 70 70" fill="none" xmlns="http://www.w3.org/2000/svg">
  <path d="M45.2084 32.0788C47.6246 32.0788 49.5834 30.1204 49.5834 27.7045C49.5834 25.2886 47.6246 23.3301 45.2084 23.3301C42.7921 23.3301 40.8334 25.2886 40.8334 27.7045C40.8334 30.1204 42.7921 32.0788 45.2084 32.0788Z" fill="#58413B"/>
  <path d="M24.7916 32.0788C27.2079 32.0788 29.1666 30.1204 29.1666 27.7045C29.1666 25.2886 27.2079 23.3301 24.7916 23.3301C22.3754 23.3301 20.4166 25.2886 20.4166 27.7045C20.4166 30.1204 22.3754 32.0788 24.7916 32.0788Z" fill="#58413B"/>
  <path d="M34.9709 5.83203C18.8709 5.83203 5.83337 18.8969 5.83337 34.9946C5.83337 51.0924 18.8709 64.1572 34.9709 64.1572C51.1 64.1572 64.1667 51.0924 64.1667 34.9946C64.1667 18.8969 51.1 5.83203 34.9709 5.83203ZM35 58.3247C22.1084 58.3247 11.6667 47.8845 11.6667 34.9946C11.6667 22.1048 22.1084 11.6645 35 11.6645C47.8917 11.6645 58.3334 22.1048 58.3334 34.9946C58.3334 47.8845 47.8917 58.3247 35 58.3247Z" fill="#58413B"/>
  <path d="M24.9375 40.8271C26.9792 44.2975 30.6834 46.6597 35 46.6597C39.3167 46.6597 43.05 44.2975 45.0625 40.8271H49.9334C47.6001 46.8055 41.7959 51.034 35 51.034C28.2042 51.034 22.4 46.8055 20.0667 40.8271H24.9375Z" fill="#1EBBEF"/>
</svg>
