<svg width="345" height="160" viewBox="0 0 345 160" fill="none" xmlns="http://www.w3.org/2000/svg">
  <path d="M44.7031 124.562C71.9688 124.562 89.9375 107.844 89.8594 84.25C89.9375 62.7656 74.8594 47.5312 54.5469 47.5312C43.2969 47.5312 34.1562 52.4531 30.4844 59.0938H29.8594L32.2031 33.625H82.8281V9.875H7.67188L2.82812 77.2188H29.2344C31.9688 71.5156 36.9688 68.2344 44.7031 68.3125C54.3906 68.2344 61.1875 74.9531 61.1094 85.1875C61.1875 95.2656 54.3906 101.984 44.7031 101.906C36.3438 101.984 29.4688 96.8281 29.2344 88.9375H0.328125C0.484375 109.797 19 124.562 44.7031 124.562Z" fill="#222222"/>
  <path d="M295.5 124.562C325.969 124.562 344.875 103.703 344.875 66.4375C344.875 29.4062 325.969 8.3125 295.5 8.3125C265.031 8.3125 246.203 29.25 246.125 66.4375C246.203 103.547 265.031 124.562 295.5 124.562ZM276.906 66.4375C277.062 42.9219 284.562 32.2969 295.5 32.2188C306.438 32.2969 314.016 42.9219 314.094 66.4375C314.172 90.4219 306.438 100.578 295.5 100.656C284.562 100.578 276.828 90.4219 276.906 66.4375Z" fill="#222222"/>
  <path d="M223.584 56.944C220.08 24.92 192.96 0 160 0C124.656 0 96 28.656 96 64C96 104.032 120 99.432 120 137.92V160H192V136H208C216.84 136 224 128.84 224 120V96.168L235.408 91.36C239.576 89.608 241.168 84.512 238.728 80.696L223.584 56.944ZM192 72H128V56H192V72Z" fill="#222222"/>
</svg>
