<svg width="335" height="160" viewBox="0 0 335 160" fill="none" xmlns="http://www.w3.org/2000/svg">
  <path d="M0.765625 105.031H55.7656V123H84.2031V105.031H97.3281V81.75H84.2031V9.875H46.5469L0.765625 81.9062V105.031ZM30.1406 81.75V80.9688L55.4531 40.8125H56.3906V81.75H30.1406Z" fill="#222222"/>
  <path d="M237.766 105.031H292.766V123H321.203V105.031H334.328V81.75H321.203V9.875H283.547L237.766 81.9062V105.031ZM267.141 81.75V80.9688L292.453 40.8125H293.391V81.75H267.141Z" fill="#222222"/>
  <path d="M167 0C131.749 0 103 28.7485 103 64C103 99.2515 131.749 128 167 128C183.191 128 197.974 121.896 209.266 111.922L215 117.656V128L247 160L263 144L231 112H220.656L214.922 106.266C224.896 94.9736 231 80.1914 231 64C231 28.7485 202.251 0 167 0ZM167 16C193.604 16 215 37.3956 215 64C215 90.6044 193.604 112 167 112C140.396 112 119 90.6044 119 64C119 37.3956 140.396 16 167 16ZM143 48C140.878 48 138.843 48.8429 137.343 50.3431C135.843 51.8434 135 53.8783 135 56C135 58.1217 135.843 60.1566 137.343 61.6569C138.843 63.1571 140.878 64 143 64C145.122 64 147.157 63.1571 148.657 61.6569C150.157 60.1566 151 58.1217 151 56C151 53.8783 150.157 51.8434 148.657 50.3431C147.157 48.8429 145.122 48 143 48ZM191 48C188.878 48 186.843 48.8429 185.343 50.3431C183.843 51.8434 183 53.8783 183 56C183 58.1217 183.843 60.1566 185.343 61.6569C186.843 63.1571 188.878 64 191 64C193.122 64 195.157 63.1571 196.657 61.6569C198.157 60.1566 199 58.1217 199 56C199 53.8783 198.157 51.8434 196.657 50.3431C195.157 48.8429 193.122 48 191 48ZM167 71.9688C157.219 71.9688 147.433 74.9163 139.156 80.8281L148.453 93.8594C159.34 86.083 174.644 86.083 185.531 93.8594L194.828 80.8281C186.552 74.9163 176.781 71.9688 167 71.9688Z" fill="#222222"/>
</svg>
