<svg width="25" height="25" viewBox="0 0 25 25" fill="none" xmlns="http://www.w3.org/2000/svg">
  <mask id="mask0_305_2454" style="mask-type:alpha" maskUnits="userSpaceOnUse" x="0" y="0" width="25" height="25">
    <rect width="25" height="25" fill="#C4C4C4"/>
  </mask>
  <g mask="url(#mask0_305_2454)">
    <path d="M12.9167 2.5C7.16667 2.5 2.5 7.16667 2.5 12.9167C2.5 18.6667 7.16667 23.3333 12.9167 23.3333H18.125V21.25H12.9167C8.39583 21.25 4.58333 17.4375 4.58333 12.9167C4.58333 8.39583 8.39583 4.58333 12.9167 4.58333C17.4375 4.58333 21.25 8.39583 21.25 12.9167V14.4063C21.25 15.2292 20.5104 16.0417 19.6875 16.0417C18.8646 16.0417 18.125 15.2292 18.125 14.4063V12.9167C18.125 10.0417 15.7917 7.70833 12.9167 7.70833C10.0417 7.70833 7.70833 10.0417 7.70833 12.9167C7.70833 15.7917 10.0417 18.125 12.9167 18.125C14.3542 18.125 15.6667 17.5417 16.6042 16.5938C17.2813 17.5208 18.4479 18.125 19.6875 18.125C21.7396 18.125 23.3333 16.4583 23.3333 14.4063V12.9167C23.3333 7.16667 18.6667 2.5 12.9167 2.5ZM12.9167 16.0417C11.1875 16.0417 9.79167 14.6458 9.79167 12.9167C9.79167 11.1875 11.1875 9.79167 12.9167 9.79167C14.6458 9.79167 16.0417 11.1875 16.0417 12.9167C16.0417 14.6458 14.6458 16.0417 12.9167 16.0417Z" fill="#1EBBEF"/>
  </g>
</svg>
