<svg width="25" height="25" viewBox="0 0 25 25" fill="none" xmlns="http://www.w3.org/2000/svg">
  <mask id="mask0_305_2449" style="mask-type:alpha" maskUnits="userSpaceOnUse" x="0" y="0" width="25" height="25">
    <rect width="25" height="25" fill="#C4C4C4"/>
  </mask>
  <g mask="url(#mask0_305_2449)">
    <path d="M12.8125 2.5C8.4933 2.5 5 5.76042 5 9.79167C5 15.2604 12.8125 23.3333 12.8125 23.3333C12.8125 23.3333 20.625 15.2604 20.625 9.79167C20.625 5.76042 17.1317 2.5 12.8125 2.5ZM12.8125 12.3958C11.2723 12.3958 10.0223 11.2292 10.0223 9.79167C10.0223 8.35417 11.2723 7.1875 12.8125 7.1875C14.3527 7.1875 15.6027 8.35417 15.6027 9.79167C15.6027 11.2292 14.3527 12.3958 12.8125 12.3958Z" fill="#1EBBEF"/>
  </g>
</svg>
