<svg width="25" height="25" viewBox="0 0 25 25" fill="none" xmlns="http://www.w3.org/2000/svg">
  <mask id="mask0_305_2459" style="mask-type:alpha" maskUnits="userSpaceOnUse" x="0" y="0" width="25" height="25">
    <rect width="25" height="25" fill="#C4C4C4"/>
  </mask>
  <g mask="url(#mask0_305_2459)">
    <path d="M22.1875 16.3593C20.7639 16.3593 19.3866 16.1489 18.1019 15.7701C17.6968 15.6439 17.2454 15.7386 16.9329 16.0226L15.1157 18.0955C11.8403 16.675 8.77315 13.9919 7.1412 10.909L9.39815 9.16238C9.71065 8.86776 9.80324 8.45741 9.67593 8.08914C9.24768 6.92121 9.02778 5.66911 9.02778 4.37492C9.02778 3.80674 8.50694 3.33325 7.88194 3.33325H3.87731C3.25231 3.33325 2.5 3.58578 2.5 4.37492C2.5 14.1497 11.4468 22.2726 22.1875 22.2726C23.0093 22.2726 23.3333 21.6098 23.3333 21.0311V17.401C23.3333 16.8328 22.8125 16.3593 22.1875 16.3593Z" fill="#1EBBEF"/>
  </g>
</svg>
