<svg width="70" height="71" viewBox="0 0 70 71" fill="none" xmlns="http://www.w3.org/2000/svg">
  <path d="M56.5211 38.2265C56.6388 37.343 56.6977 36.4301 56.6977 35.4583C56.6977 34.516 56.6388 33.5736 56.4916 32.6901L62.4693 28.0372C62.9993 27.6249 63.1465 26.8298 62.8226 26.2408L57.1689 16.4639C56.8155 15.816 56.0794 15.6098 55.4315 15.816L48.3938 18.6431C46.9215 17.524 45.3608 16.5817 43.6235 15.8749L42.5634 8.3949C42.4456 7.68813 41.8567 7.1875 41.15 7.1875H29.8425C29.1358 7.1875 28.5763 7.68813 28.4586 8.3949L27.3985 15.8749C25.6611 16.5817 24.071 17.5535 22.6282 18.6431L15.5904 15.816C14.9426 15.5804 14.2065 15.816 13.8531 16.4639L8.22883 26.2408C7.87547 26.8593 7.99326 27.6249 8.58219 28.0372L14.5598 32.6901C14.4126 33.5736 14.2948 34.5454 14.2948 35.4583C14.2948 36.3712 14.3537 37.343 14.5009 38.2265L8.52329 42.8794C7.99326 43.2917 7.84602 44.0868 8.16994 44.6758L13.8237 54.4528C14.177 55.1006 14.9132 55.3068 15.561 55.1006L22.5987 52.2736C24.071 53.3926 25.6317 54.335 27.369 55.0417L28.4291 62.5217C28.5763 63.2285 29.1358 63.7291 29.8425 63.7291H41.15C41.8567 63.7291 42.4456 63.2285 42.534 62.5217L43.5941 55.0417C45.3314 54.335 46.9215 53.3926 48.3644 52.2736L55.4021 55.1006C56.0499 55.3362 56.7861 55.1006 57.1394 54.4528L62.7932 44.6758C63.1465 44.0279 62.9993 43.2917 62.4398 42.8794L56.5211 38.2265ZM35.4963 46.0599C29.6659 46.0599 24.8955 41.2892 24.8955 35.4583C24.8955 29.6275 29.6659 24.8568 35.4963 24.8568C41.3267 24.8568 46.097 29.6275 46.097 35.4583C46.097 41.2892 41.3267 46.0599 35.4963 46.0599Z" fill="#5A433D"/>
</svg>
