<svg width="70" height="71" viewBox="0 0 70 71" fill="none" xmlns="http://www.w3.org/2000/svg">
  <path d="M28.625 35.532C24.8437 35.532 21.75 38.6258 21.75 42.4071C21.75 46.1885 24.8437 49.2823 28.625 49.2823C32.4063 49.2823 35.5 46.1885 35.5 42.4071C35.5 38.6258 32.4063 35.532 28.625 35.532ZM14.875 21.7816C11.0937 21.7816 8 24.8754 8 28.6568C8 32.4381 11.0937 35.532 14.875 35.532C18.6563 35.532 21.75 32.4381 21.75 28.6568C21.75 24.8754 18.6563 21.7816 14.875 21.7816ZM14.875 49.2823C11.0937 49.2823 8 52.3762 8 56.1575C8 59.9388 11.0937 63.0327 14.875 63.0327C18.6563 63.0327 21.75 59.9388 21.75 56.1575C21.75 52.3762 18.6563 49.2823 14.875 49.2823ZM56.125 21.7816C59.9063 21.7816 63 18.6878 63 14.9064C63 11.1251 59.9063 8.03125 56.125 8.03125C52.3437 8.03125 49.25 11.1251 49.25 14.9064C49.25 18.6878 52.3437 21.7816 56.125 21.7816ZM42.375 49.2823C38.5937 49.2823 35.5 52.3762 35.5 56.1575C35.5 59.9388 38.5937 63.0327 42.375 63.0327C46.1563 63.0327 49.25 59.9388 49.25 56.1575C49.25 52.3762 46.1563 49.2823 42.375 49.2823ZM56.125 35.532C52.3437 35.532 49.25 38.6258 49.25 42.4071C49.25 46.1885 52.3437 49.2823 56.125 49.2823C59.9063 49.2823 63 46.1885 63 42.4071C63 38.6258 59.9063 35.532 56.125 35.532ZM42.375 21.7816C38.5937 21.7816 35.5 24.8754 35.5 28.6568C35.5 32.4381 38.5937 35.532 42.375 35.532C46.1563 35.532 49.25 32.4381 49.25 28.6568C49.25 24.8754 46.1563 21.7816 42.375 21.7816ZM28.625 8.03125C24.8437 8.03125 21.75 11.1251 21.75 14.9064C21.75 18.6878 24.8437 21.7816 28.625 21.7816C32.4063 21.7816 35.5 18.6878 35.5 14.9064C35.5 11.1251 32.4063 8.03125 28.625 8.03125Z" fill="#1EBBEF"/>
</svg>
