<svg width="70" height="71" viewBox="0 0 70 71" fill="none" xmlns="http://www.w3.org/2000/svg">
  <path d="M35.9766 32.5901C29.0955 30.8016 26.8826 28.9525 26.8826 26.0727C26.8826 22.7686 29.9443 20.4648 35.0672 20.4648C40.4629 20.4648 42.4635 23.0414 42.6454 26.8306H49.3446C49.1324 21.6167 45.9495 16.8272 39.6141 15.2812V8.64258H30.5202V15.1903C24.6395 16.4634 19.9106 20.2829 19.9106 26.1334C19.9106 33.1357 25.7004 36.6218 34.1578 38.6528C41.736 40.4716 43.2517 43.1391 43.2517 45.9583C43.2517 48.0499 41.7663 51.3844 35.0672 51.3844C28.8227 51.3844 26.3673 48.5955 26.0339 45.0186H19.365C19.7287 51.6572 24.7001 55.3857 30.5202 56.6286V63.2066H39.6141V56.6892C45.5252 55.5676 50.2237 52.1422 50.2237 45.928C50.2237 37.319 42.8576 34.3786 35.9766 32.5901Z" fill="#5A433D"/>
</svg>
