<svg width="70" height="70" viewBox="0 0 70 70" fill="none" xmlns="http://www.w3.org/2000/svg">
  <path d="M29.1667 48.125L46.6667 35L29.1667 21.875V48.125ZM35 5.83337C18.9 5.83337 5.83334 18.9 5.83334 35C5.83334 51.1 18.9 64.1667 35 64.1667C51.1 64.1667 64.1667 51.1 64.1667 35C64.1667 18.9 51.1 5.83337 35 5.83337ZM35 58.3334C22.1375 58.3334 11.6667 47.8625 11.6667 35C11.6667 22.1375 22.1375 11.6667 35 11.6667C47.8625 11.6667 58.3333 22.1375 58.3333 35C58.3333 47.8625 47.8625 58.3334 35 58.3334Z" fill="black"/>
</svg>
