<svg width="375" height="143" viewBox="0 0 375 143" fill="none" xmlns="http://www.w3.org/2000/svg">
  <rect width="375" height="143" fill="#F2F2F2"/>
  <mask id="mask0_284_351" style="mask-type:alpha" maskUnits="userSpaceOnUse" x="0" y="0" width="375" height="143">
    <rect width="375" height="143" fill="white"/>
  </mask>
  <g mask="url(#mask0_284_351)">
    <g opacity="0.27">
      <path d="M163.012 69.0617L71.0504 -14.516L14.2216 37.1054H-308V35.7194H13.5945L71.0554 -16.4692L163.96 68.0371L163.012 69.0617Z" fill="#58413B"/>
      <path d="M241.371 67.6758H163.012V69.0618H241.371V67.6758Z" fill="#58413B"/>
      <path d="M18.5066 45.7189H-308V44.3328H17.8794L77.3976 -9.73584L78.4663 -8.75235L18.5066 45.7189Z" fill="#58413B"/>
      <path d="M241.376 75.7222H158.461V77.1082H241.376V75.7222Z" fill="#58413B"/>
      <path d="M22.9873 53.7653H-308V52.3793H22.3601L83.7598 -3.40479L84.8336 -2.42129L22.9873 53.7653Z" fill="#58413B"/>
      <path d="M241.371 83.814H154.01V85.2H241.371V83.814Z" fill="#58413B"/>
      <path d="M27.468 61.8113H-308V60.4253H26.8408L90.7292 2.37695L91.8029 3.35585L27.468 61.8113Z" fill="#58413B"/>
      <path d="M241.371 91.8145H149.309V93.2005H241.371V91.8145Z" fill="#58413B"/>
      <path d="M655.368 67.6758H244.642V69.0618H655.368V67.6758Z" fill="#29AFDE"/>
      <path d="M655.368 75.7222H244.642V77.1082H655.368V75.7222Z" fill="#29AFDE"/>
      <path d="M655.368 83.814H244.642V85.2H655.368V83.814Z" fill="#29AFDE"/>
      <path d="M655.368 91.8145H244.642V93.2005H655.368V91.8145Z" fill="#29AFDE"/>
      <path d="M31.9486 69.8578H-308V68.4718H31.3215L97.3975 8.43359L98.4712 9.41251L31.9486 69.8578Z" fill="#58413B"/>
      <path d="M655.368 99.8608H144.813V101.247H655.368V99.8608Z" fill="#29AFDE"/>
      <path d="M36.2085 78.0459L35.1348 77.0625L77.7337 38.4185L78.8225 39.3836L36.2085 78.0459Z" fill="#29AFDE"/>
      <path d="M655.368 107.907H140.383V109.293H655.368V107.907Z" fill="#29AFDE"/>
      <path d="M40.5838 86.1883L39.6355 85.1545L46.2135 79.185L77.4276 51.1489L78.3609 52.0043L40.5838 86.1883Z" fill="#58413B"/>
      <path d="M158.461 77.1079L90.7441 15.6288L91.8179 14.6499L159.419 76.0833L158.461 77.1079Z" fill="#58413B"/>
      <path d="M154.01 85.2L84.1813 21.7813L85.255 20.7979L154.959 84.1524L154.01 85.2Z" fill="#58413B"/>
      <path d="M149.309 93.2003L77.3975 27.9291L78.4712 26.9502L150.237 92.1894L149.309 93.2003Z" fill="#58413B"/>
      <path d="M144.813 101.247L77.2319 39.9005L78.3057 38.917L145.736 100.199L144.813 101.247Z" fill="#29AFDE"/>
      <path d="M140.383 109.293L76.8857 51.6427L77.9595 50.6592L140.97 107.907L140.383 109.293Z" fill="#58413B"/>
      <path d="M36.2086 76.6597H-308V78.0457H36.2086V76.6597Z" fill="#29AFDE"/>
      <path d="M40.5838 86.1879L-308 86.2016V84.6875L40.5838 84.8019V86.1879Z" fill="#58413B"/>
    </g>
  </g>
</svg>
