<svg width="1920" height="285" viewBox="0 0 1920 285" fill="none" xmlns="http://www.w3.org/2000/svg">
  <rect width="1920" height="285" fill="#F2F2F2"/>
  <mask id="mask0_284_148" style="mask-type:alpha" maskUnits="userSpaceOnUse" x="0" y="0" width="1920" height="285">
    <rect width="1920" height="285" fill="white"/>
  </mask>
  <g mask="url(#mask0_284_148)">
    <g opacity="0.27">
      <path d="M938.73 137.64L755.45 -28.9309L642.19 73.9509H0V71.1885H640.94L755.46 -32.8237L940.62 135.598L938.73 137.64Z" fill="#58413B"/>
      <path d="M1094.9 134.878H938.73V137.64H1094.9V134.878Z" fill="#58413B"/>
      <path d="M650.73 91.1175H0V88.3552H649.48L768.1 -19.4041L770.23 -17.444L650.73 91.1175Z" fill="#58413B"/>
      <path d="M1094.91 150.914H929.66V153.676H1094.91V150.914Z" fill="#58413B"/>
      <path d="M659.66 107.154H0V104.391H658.41L780.78 -6.78662L782.92 -4.82651L659.66 107.154Z" fill="#58413B"/>
      <path d="M1094.9 167.042H920.79V169.804H1094.9V167.042Z" fill="#58413B"/>
      <path d="M668.59 123.19H0V120.428H667.34L794.67 4.73706L796.81 6.68802L668.59 123.19Z" fill="#58413B"/>
      <path d="M1094.9 182.986H911.42V185.749H1094.9V182.986Z" fill="#58413B"/>
      <path d="M1920 134.878H1101.42V137.64H1920V134.878Z" fill="#29AFDE"/>
      <path d="M1920 150.914H1101.42V153.676H1920V150.914Z" fill="#29AFDE"/>
      <path d="M1920 167.042H1101.42V169.804H1920V167.042Z" fill="#29AFDE"/>
      <path d="M1920 182.986H1101.42V185.749H1920V182.986Z" fill="#29AFDE"/>
      <path d="M677.52 139.226H0V136.464H676.27L807.96 16.8074L810.1 18.7584L677.52 139.226Z" fill="#58413B"/>
      <path d="M1920 199.023H902.46V201.785H1920V199.023Z" fill="#29AFDE"/>
      <path d="M686.01 155.545L683.87 153.585L768.77 76.5674L770.94 78.491L686.01 155.545Z" fill="#29AFDE"/>
      <path d="M1920 215.059H893.63V217.821H1920V215.059Z" fill="#29AFDE"/>
      <path d="M694.73 171.773L692.84 169.713L705.95 157.815L768.16 101.939L770.02 103.644L694.73 171.773Z" fill="#58413B"/>
      <path d="M929.66 153.676L794.7 31.148L796.84 29.197L931.57 151.634L929.66 153.676Z" fill="#58413B"/>
      <path d="M920.79 169.804L781.62 43.41L783.76 41.45L922.68 167.716L920.79 169.804Z" fill="#58413B"/>
      <path d="M911.42 185.749L768.1 55.6629L770.24 53.7119L913.27 183.734L911.42 185.749Z" fill="#58413B"/>
      <path d="M902.46 201.785L767.77 79.5211L769.91 77.561L904.3 199.697L902.46 201.785Z" fill="#29AFDE"/>
      <path d="M893.63 217.821L767.08 102.924L769.22 100.964L894.8 215.059L893.63 217.821Z" fill="#58413B"/>
      <path d="M686.01 152.783H0V155.545H686.01V152.783Z" fill="#29AFDE"/>
      <path d="M694.73 171.773L0 171.8V168.783L694.73 169.011V171.773Z" fill="#58413B"/>
    </g>
  </g>
</svg>
