<svg width="216" height="50" viewBox="0 0 216 50" fill="none" xmlns="http://www.w3.org/2000/svg">
  <path
    d="M50.0942 16.1508L39.9779 6.03453C39.155 5.21164 37.7508 5.79299 37.7508 6.95568V25.9396H37.7221C37.4273 31.839 32.5473 36.5348 26.5496 36.5348C20.5519 36.5348 15.6718 31.839 15.3771 25.9396H15.3484V6.95978C15.3484 5.79708 13.9442 5.21573 13.1213 6.03863L3.00909 16.1508C-1.00303 20.1629 -1.00303 26.7338 3.00909 30.7459L19.2541 46.9909C23.2662 51.003 29.8371 51.003 33.8492 46.9909L50.0942 30.7459C54.1063 26.7338 54.1063 20.1629 50.0942 16.1508Z"
    fill="#59423C" />
  <path
    d="M26.959 21.9439V16.3351L28.2527 15.6064L28.2772 13.019L28.2527 13.0026V9.73966L28.2772 7.15225L26.0501 5.83398L23.7943 7.10722L23.7697 9.69462L23.8066 9.71509C23.7779 9.70691 23.7616 9.70281 23.7697 9.69462V15.5613L25.1863 16.4006V21.948H20.8958V11.234L22.1895 10.5052L22.214 7.91783L19.9869 6.59956L17.7311 7.8728L17.7065 10.4602L19.1231 11.2995V21.948H17.1211V25.5261H17.1457C17.3954 30.1482 21.5058 33.8328 26.5537 33.8328C31.6016 33.8328 35.7119 30.1523 35.9617 25.5261H35.9862V21.948H26.959V21.9439Z"
    fill="#18BBEF" />
  <path d="M22.1895 3.90567L22.2181 1.31827L19.9869 0L17.7352 1.27323L17.7065 3.86064L19.9378 5.17891L22.1895 3.90567Z"
    fill="#18BBEF" />
  <path
    d="M70.4331 44.1005C70.0606 45.8405 68.7505 47.1055 66.4169 47.1055C63.4611 47.1055 62.065 45.0135 62.065 42.3647C62.065 39.7159 63.5061 37.5215 66.5111 37.5215C68.992 37.5215 70.1957 38.9789 70.4209 40.5347H68.4066C68.2142 39.8182 67.7106 39.1018 66.4456 39.1018C64.7834 39.1018 64.1447 40.5961 64.1447 42.291C64.1447 43.8672 64.7015 45.5252 66.5029 45.5252C67.8171 45.5252 68.2306 44.645 68.4066 44.1005H70.4331Z"
    fill="#1EBBEF" />
  <path d="M71.7023 46.9747V37.1123H73.6387V46.9747H71.7023Z" fill="#1EBBEF" />
  <path
    d="M76.918 43.8919C76.918 44.7681 77.3561 45.6237 78.3223 45.6237C79.1288 45.6237 79.358 45.3003 79.5423 44.8786H81.4787C81.229 45.7342 80.4675 47.1426 78.269 47.1426C76.0706 47.1426 74.9652 45.419 74.9652 43.5849C74.9652 41.3905 76.091 39.8225 78.3386 39.8225C80.7418 39.8225 81.5565 41.5584 81.5565 43.3065C81.5565 43.544 81.5565 43.6954 81.5319 43.896H76.918V43.8919ZM79.6201 42.7047C79.6078 41.89 79.2803 41.2063 78.3386 41.2063C77.397 41.2063 77.0367 41.8449 76.959 42.7047H79.6201Z"
    fill="#1EBBEF" />
  <path
    d="M88.676 45.165C88.676 45.8323 88.7292 46.8026 88.7702 46.9704H86.9197C86.8665 46.8312 86.8255 46.4628 86.8214 46.2867C86.5676 46.6798 86.0927 47.1342 84.8563 47.1342C83.1696 47.1342 82.4572 46.0247 82.4572 44.9398C82.4572 43.3473 83.7345 42.6103 85.7856 42.6103H86.7846V42.1846C86.7846 41.6892 86.6044 41.1979 85.7079 41.1979C84.8891 41.1979 84.713 41.5459 84.6229 42.0536H82.7806C82.8871 40.809 83.6527 39.8059 85.7815 39.8182C87.6566 39.8305 88.676 40.5633 88.676 42.2255V45.165ZM86.7887 43.7894H85.9985C84.8317 43.7894 84.3978 44.1456 84.3978 44.8211C84.3978 45.3288 84.7089 45.7545 85.4049 45.7545C86.6372 45.7545 86.7887 44.8989 86.7887 43.9736V43.7894Z"
    fill="#1EBBEF" />
  <path
    d="M90.4405 41.7426C90.4405 41.149 90.4405 40.498 90.4282 39.9822H92.3033C92.3401 40.1623 92.3688 40.6495 92.377 40.8747C92.6144 40.4366 93.1794 39.8225 94.4076 39.8225C95.8118 39.8225 96.7248 40.7723 96.7248 42.5286V46.9788H94.7883V42.7456C94.7883 41.9596 94.5263 41.3905 93.6707 41.3905C92.815 41.3905 92.377 41.849 92.377 43.0813V46.9788H90.4405V41.7467V41.7426Z"
    fill="#1EBBEF" />
  <path
    d="M110.055 46.9746H108.577C108.499 46.688 108.45 46.3687 108.421 46.0575C107.905 46.7535 106.997 47.1302 105.699 47.1302C102.993 47.1302 101.486 45.0872 101.486 42.4343C101.486 39.634 103.116 37.5256 106.051 37.5256C108.45 37.5256 109.858 38.8767 110.084 40.4692H108.069C107.877 39.8469 107.386 39.1059 106.022 39.1059C104.11 39.1059 103.566 40.7067 103.566 42.3484C103.566 43.9901 104.188 45.5294 106.039 45.5294C107.762 45.5294 108.077 44.334 108.077 43.4988V43.4128H106.035V41.7629H110.051V46.9746H110.055Z"
    fill="#1EBBEF" />
  <path
    d="M111.799 41.8776C111.799 41.1817 111.799 40.5635 111.787 39.9821H113.686C113.711 40.1377 113.735 40.8337 113.735 41.2103C114.042 40.412 114.792 39.8265 115.979 39.8184V41.6648C114.575 41.6279 113.735 42.0046 113.735 43.9246V46.9747H111.799V41.8776Z"
    fill="#1EBBEF" />
  <path
    d="M123.508 43.462C123.508 45.5786 122.243 47.1343 120.028 47.1343C117.813 47.1343 116.593 45.5867 116.593 43.4988C116.593 41.4109 117.899 39.8142 120.118 39.8142C122.177 39.8142 123.508 41.2676 123.508 43.462ZM118.558 43.4742C118.558 44.8212 119.139 45.6195 120.069 45.6195C120.998 45.6195 121.543 44.8212 121.543 43.4865C121.543 42.0209 121.006 41.329 120.04 41.329C119.144 41.329 118.554 41.9922 118.554 43.4742H118.558Z"
    fill="#1EBBEF" />
  <path
    d="M131 44.94C131 45.6155 131 46.3483 131.012 46.9706H129.116C129.088 46.7823 129.076 46.4097 129.063 46.1641C128.65 46.8641 128.032 47.1343 127.139 47.1343C125.714 47.1343 124.806 46.2664 124.806 44.5346V39.978H126.742V44.1457C126.742 44.9195 126.979 45.5581 127.819 45.5581C128.703 45.5581 129.067 45.0873 129.067 43.7036V39.9821H131.004V44.944L131 44.94Z"
    fill="#1EBBEF" />
  <path
    d="M132.752 41.7426C132.752 41.149 132.752 40.498 132.74 39.9822H134.615C134.652 40.1623 134.68 40.6495 134.688 40.8747C134.926 40.4366 135.491 39.8225 136.719 39.8225C138.123 39.8225 139.036 40.7723 139.036 42.5286V46.9788H137.1V42.7456C137.1 41.9596 136.838 41.3905 135.982 41.3905C135.126 41.3905 134.688 41.849 134.688 43.0813V46.9788H132.752V41.7467V41.7426Z"
    fill="#1EBBEF" />
  <path
    d="M147.171 37.1081V45.0505C147.171 45.685 147.171 46.3319 147.183 46.9705H145.321C145.28 46.7617 145.243 46.4015 145.23 46.2418C144.891 46.7904 144.293 47.1343 143.245 47.1343C141.476 47.1343 140.35 45.7137 140.35 43.5316C140.35 41.3495 141.546 39.8142 143.527 39.8142C144.534 39.8142 145.075 40.1704 145.23 40.4816V37.104H147.167L147.171 37.1081ZM142.344 43.4825C142.344 44.8458 142.876 45.5827 143.822 45.5827C145.153 45.5827 145.308 44.4732 145.308 43.4661C145.308 42.2706 145.14 41.3659 143.875 41.3659C142.86 41.3659 142.344 42.1601 142.344 43.4825Z"
    fill="#1EBBEF" />
  <path
    d="M150.225 39.978C150.856 42.7865 151.2 44.3832 151.331 45.2511H151.355C151.498 44.4732 151.699 43.376 152.551 39.978H154.352C155.146 43.417 155.38 44.4282 155.478 45.1815H155.49C155.633 44.461 155.846 43.4129 156.661 39.978H158.577L156.501 46.9706H154.426C153.852 44.3177 153.521 42.9216 153.361 42.0005H153.349C153.238 42.8766 152.862 44.461 152.244 46.9706H150.16L148.174 39.978H150.221H150.225Z"
    fill="#1EBBEF" />
  <path
    d="M165.144 45.165C165.144 45.8323 165.197 46.8026 165.238 46.9704H163.387C163.334 46.8312 163.293 46.4628 163.289 46.2867C163.035 46.6798 162.56 47.1342 161.324 47.1342C159.637 47.1342 158.925 46.0247 158.925 44.9398C158.925 43.3473 160.202 42.6103 162.253 42.6103H163.252V42.1846C163.252 41.6892 163.072 41.1979 162.176 41.1979C161.357 41.1979 161.181 41.5459 161.091 42.0536H159.248C159.355 40.809 160.12 39.8059 162.249 39.8182C164.124 39.8305 165.144 40.5633 165.144 42.2255V45.165ZM163.256 43.7894H162.466C161.299 43.7894 160.865 44.1456 160.865 44.8211C160.865 45.3288 161.177 45.7545 161.873 45.7545C163.101 45.7545 163.256 44.8989 163.256 43.9736V43.7894Z"
    fill="#1EBBEF" />
  <path
    d="M166.077 39.978H167.154V38.0825H169.09V39.978H170.462V41.4355H169.09V44.8867C169.09 45.419 169.254 45.6237 169.831 45.6237C169.938 45.6237 170.126 45.6237 170.273 45.6032V46.9337C169.889 47.0648 169.365 47.0688 168.972 47.0688C167.608 47.0688 167.158 46.3401 167.158 45.116V41.4355H166.081V39.978H166.077Z"
    fill="#1EBBEF" />
  <path
    d="M173.07 43.8919C173.07 44.7681 173.508 45.6237 174.474 45.6237C175.28 45.6237 175.51 45.3003 175.694 44.8786H177.63C177.381 45.7342 176.619 47.1426 174.421 47.1426C172.222 47.1426 171.117 45.419 171.117 43.5849C171.117 41.3905 172.243 39.8225 174.49 39.8225C176.893 39.8225 177.708 41.5584 177.708 43.3065C177.708 43.544 177.708 43.6954 177.684 43.896H173.07V43.8919ZM175.772 42.7047C175.759 41.89 175.432 41.2063 174.49 41.2063C173.549 41.2063 173.188 41.8449 173.111 42.7047H175.772Z"
    fill="#1EBBEF" />
  <path
    d="M179.067 41.8776C179.067 41.1817 179.067 40.5635 179.055 39.9821H180.955C180.979 40.1377 181.004 40.8337 181.004 41.2103C181.311 40.412 182.06 39.8265 183.247 39.8184V41.6648C181.843 41.6279 181.004 42.0046 181.004 43.9246V46.9747H179.067V41.8776Z"
    fill="#1EBBEF" />
  <path d="M189.761 39.3066H186.932V37.6567H194.6V39.3066H191.779V46.9706H189.765V39.3066H189.761Z" fill="#1EBBEF" />
  <path
    d="M195.943 43.8919C195.943 44.7681 196.381 45.6237 197.347 45.6237C198.154 45.6237 198.383 45.3003 198.567 44.8786H200.504C200.254 45.7342 199.492 47.1426 197.294 47.1426C195.095 47.1426 193.99 45.419 193.99 43.5849C193.99 41.3905 195.116 39.8225 197.363 39.8225C199.767 39.8225 200.581 41.5584 200.581 43.3065C200.581 43.544 200.581 43.6954 200.557 43.896H195.943V43.8919ZM198.645 42.7047C198.633 41.89 198.305 41.2063 197.363 41.2063C196.422 41.2063 196.062 41.8449 195.984 42.7047H198.645Z"
    fill="#1EBBEF" />
  <path
    d="M208.073 44.7148C207.832 45.8816 207.013 47.1385 204.929 47.1385C202.845 47.1385 201.633 45.6319 201.633 43.5317C201.633 41.4315 202.894 39.8225 205.023 39.8225C207.381 39.8225 208.037 41.5133 208.073 42.3076H206.182C206.063 41.7385 205.74 41.3414 204.982 41.3414C204.098 41.3414 203.595 42.1192 203.595 43.4744C203.595 44.9646 204.127 45.6401 204.974 45.6401C205.637 45.6401 205.998 45.2471 206.17 44.723H208.073V44.7148Z"
    fill="#1EBBEF" />
  <path
    d="M211.197 37.1082V40.805C211.504 40.3506 212.069 39.8184 213.199 39.8184C214.505 39.8184 215.541 40.5921 215.541 42.4877V46.9747H213.617V42.7783C213.617 41.8695 213.293 41.3864 212.483 41.3864C211.406 41.3864 211.197 42.1888 211.197 43.2655V46.9747H209.261V37.1122H211.197V37.1082Z"
    fill="#1EBBEF" />
  <path
    d="M74.7482 17.1334H70.8098L68.1118 13.4365L65.4139 17.1334H61.4141V13.1663H62.9288L65.6841 9.37935V2.19439H70.5314V9.37526L73.2867 13.1622H74.74V17.1293L74.7482 17.1334ZM76.3244 30.7992L65.4794 28.4369V19.0453H87.1735V28.4369L76.3285 30.7992H76.3244ZM76.3244 26.7993L82.3549 25.4974V22.9223H70.298V25.4974L76.3285 26.7993H76.3244ZM87.1694 17.682H82.4449V11.4714H80.5371V17.5305H75.8127V1.95284H80.5371V7.40605H82.4449V1.77271H87.1694V17.6779V17.682Z"
    fill="#5A433D" />
  <path
    d="M90.6452 20.9204V17.5592H98.7636V16.3761H88.1602V12.8307H114.427V16.3761H103.852V17.5592H111.971V24.9816H95.6112V25.9519L101.306 27.1637L108.577 25.739H112V28.6785L101.306 30.7706L90.6411 28.4697V21.8661H107.001V20.9286H90.6411L90.6452 20.9204ZM111.975 2.46875V11.7376H90.6452V2.46875H111.975ZM106.948 8.22491V5.9814H95.6767V8.22491H106.948Z"
    fill="#5A433D" />
  <path
    d="M130.41 25.9477H115.717V3.07454H129.804V7.07438H120.806V11.8316H129.047V15.7414H120.806V21.952H130.41V25.9518V25.9477ZM134.562 1.76855H139.683V30.0704H134.562V15.7086H130.594V11.7088H134.562V1.77265V1.76855Z"
    fill="#5A433D" />
</svg>
