<svg width="128" height="25" viewBox="0 0 128 25" fill="none" xmlns="http://www.w3.org/2000/svg">
  <path
    d="M25.0504 8.07516L19.9916 3.01702C19.5801 2.60558 18.8779 2.89625 18.8779 3.4776V12.9695H18.8636C18.7162 15.9193 16.2758 18.2672 13.2766 18.2672C10.2773 18.2672 7.83696 15.9193 7.68955 12.9695H7.67522V3.47964C7.67522 2.8983 6.97301 2.60762 6.56151 3.01907L1.50474 8.07516C-0.501581 10.0812 -0.501581 13.3666 1.50474 15.3727L9.62832 23.4952C11.6346 25.5013 14.9205 25.5013 16.9268 23.4952L25.0504 15.3727C27.0567 13.3666 27.0567 10.0812 25.0504 8.07516Z"
    fill="#59423C" />
  <path
    d="M13.4813 10.9719V8.16755L14.1282 7.80318L14.1405 6.50948L14.1282 6.50129V4.86983L14.1405 3.57613L13.0268 2.91699L11.8987 3.55361L11.8865 4.84731L11.9049 4.85755C11.8906 4.85345 11.8824 4.85141 11.8865 4.84731V7.78066L12.5948 8.2003V10.974H10.4493V5.61698L11.0962 5.25262L11.1085 3.95891L9.99478 3.29978L8.86674 3.9364L8.85445 5.2301L9.56281 5.64974V10.974H8.56169V12.7631H8.57398C8.69886 15.0741 10.7543 16.9164 13.2786 16.9164C15.8029 16.9164 17.8583 15.0762 17.9832 12.7631H17.9955V10.974H13.4813V10.9719Z"
    fill="#18BBEF" />
  <path
    d="M11.0962 1.95284L11.1105 0.659134L9.99478 0L8.86878 0.636617L8.85445 1.93032L9.97021 2.58945L11.0962 1.95284Z"
    fill="#18BBEF" />
  <path
    d="M40.4705 17.8474L35.471 18.9385L31.0469 17.9539V15.8782L35.471 16.8628L37.9114 16.3183V13.9847L31.2291 12.47V7.40979L36.0463 6.36377L40.2882 7.30334V9.379L36.0463 8.43943L33.7882 9.00031V10.9081L40.4705 12.4086V17.8474Z"
    fill="#5A433D" />
  <path
    d="M42.227 10.38L46.0309 9.54688L50.6823 10.5315V17.9539L46.1066 18.9385L41.7582 17.9539V13.8783L45.865 13.0145L48.1682 13.2724V11.9541L46.0309 11.5304L42.227 12.3492V10.38ZM44.2722 15.1823V16.5149L46.1046 16.9386L48.1662 16.5149V15.1372L45.863 14.8793L44.2722 15.1823Z"
    fill="#5A433D" />
  <path
    d="M54.568 15.258V16.5005L56.6132 16.9406L60.6586 16.1525V18.1525L56.6132 18.9406L52.0375 17.9559V10.5458L56.6439 9.54688L60.9022 10.4701V15.258H54.57H54.568ZM54.568 13.3789H58.3718V11.9091L56.6439 11.5304L54.568 11.9705V13.3789Z"
    fill="#5A433D" />
  <path
    d="M66.8885 18.6356V11.9235L65.6908 11.5899L64.6753 11.8928V18.6336H62.19V10.5909L65.6887 9.54492L68.1291 10.2409L70.5695 9.54492L74.0682 10.5909V18.6356H71.5828V11.8949L70.5674 11.5919L69.3697 11.9256V18.6356H66.8844H66.8885Z"
    fill="#5A433D" />
  <path
    d="M80.1323 18.6356V11.9235L78.9346 11.5899L77.9192 11.8928V18.6336H75.4338V10.5909L78.9325 9.54492L81.3729 10.2409L83.8133 9.54492L87.312 10.5909V18.6356H84.8266V11.8949L83.8112 11.5919L82.6135 11.9256V18.6356H80.1282H80.1323Z"
    fill="#5A433D" />
  <path
    d="M97.4972 9.8501V17.9705L93.0874 18.9408L88.6776 17.9705V9.8501H91.208V16.4844L93.0874 16.8938L94.9668 16.4844V9.8501H97.4972Z"
    fill="#5A433D" />
  <path d="M101.385 6.06104V18.6194H98.8546V6.06104H101.385Z" fill="#5A433D" />
  <path
    d="M108.933 18.4677L105.797 18.9364L104.13 18.5721V11.819H102.478V9.84981H104.13V7.57764H106.644V9.84981H108.903V11.819H106.644V16.8342L108.931 16.5005V18.4697L108.933 18.4677Z"
    fill="#5A433D" />
  <path
    d="M112.71 15.258V16.5005L114.756 16.9406L118.801 16.1525V18.1525L114.756 18.9406L110.18 17.9559V10.5458L114.786 9.54688L119.045 10.4701V15.258H112.713H112.71ZM112.71 13.3789H116.514V11.9091L114.786 11.5304L112.71 11.9705V13.3789Z"
    fill="#5A433D" />
  <path
    d="M127.273 12.3638L124.924 11.9094L122.863 13.0311V18.6215H120.332V9.78869H122.863V10.8183L124.924 9.74365L127.273 10.2124V12.3638Z"
    fill="#5A433D" />
</svg>