<svg width="170" height="10" viewBox="0 0 170 10" fill="none" xmlns="http://www.w3.org/2000/svg">
  <path
    d="M9.23904 6.97118C8.82771 8.70584 7.38128 9.96705 4.80484 9.96705C1.54135 9.96296 0 7.88137 0 5.23652C0 2.59166 1.59107 0.412109 4.9088 0.412109C7.64797 0.412109 8.97687 1.86515 9.22548 3.41614H7.0016C6.78916 2.70187 6.23319 1.98759 4.83648 1.98759C3.00133 1.98759 2.2962 3.47736 2.2962 5.16713C2.2962 6.73853 2.91093 8.39156 4.89976 8.39156C6.35071 8.39156 6.80724 7.51403 7.0016 6.97118H9.23904Z"
    fill="#1EBBEF" />
  <path d="M10.6403 9.83248V0H12.7783V9.83248H10.6403Z" fill="#1EBBEF" />
  <path
    d="M16.3988 6.75922C16.3988 7.63267 16.8825 8.48572 17.9492 8.48572C18.8397 8.48572 19.0928 8.16328 19.2962 7.74288H21.4342C21.1585 8.59592 20.3177 9.99998 17.8904 9.99998C15.4632 9.99998 14.2427 8.28164 14.2427 6.4531C14.2427 4.26539 15.4858 2.70215 17.9673 2.70215C20.6206 2.70215 21.5201 4.43273 21.5201 6.17556C21.5201 6.41229 21.5201 6.56331 21.4929 6.7633H16.3988V6.75922ZM19.3821 5.57557C19.3685 4.76334 19.0069 4.08172 17.9673 4.08172C16.9277 4.08172 16.5299 4.71844 16.444 5.57557H19.3821Z"
    fill="#1EBBEF" />
  <path
    d="M29.3805 8.03278C29.3805 8.69807 29.4393 9.6654 29.4845 9.83275H27.4414C27.3826 9.69397 27.3374 9.32663 27.3329 9.15113C27.0527 9.54296 26.5283 9.99601 25.1633 9.99601C23.301 9.99601 22.5145 8.88991 22.5145 7.80829C22.5145 6.22057 23.9248 5.48588 26.1893 5.48588H27.2922V5.0614C27.2922 4.56753 27.0933 4.07775 26.1034 4.07775C25.1994 4.07775 25.0051 4.42468 24.9056 4.93079H22.8716C22.9891 3.69 23.8344 2.69002 26.1848 2.70226C28.255 2.7145 29.3805 3.4451 29.3805 5.10222V8.03278ZM27.2967 6.66137H26.4244C25.1361 6.66137 24.657 7.01647 24.657 7.68993C24.657 8.19604 25.0005 8.62052 25.7689 8.62052C27.1295 8.62052 27.2967 7.76748 27.2967 6.84505V6.66137Z"
    fill="#1EBBEF" />
  <path
    d="M31.3287 4.6164C31.3287 4.02457 31.3287 3.37561 31.3151 2.86133H33.3853C33.426 3.04092 33.4576 3.52662 33.4667 3.75111C33.7288 3.31438 34.3526 2.70215 35.7086 2.70215C37.259 2.70215 38.267 3.64907 38.267 5.40006V9.83672H36.129V5.6123C36.129 4.82864 35.8397 4.2613 34.895 4.2613C33.9503 4.2613 33.4667 4.71844 33.4667 5.94699V9.83264H31.3287V4.6164Z"
    fill="#1EBBEF" />
  <path
    d="M52.9798 9.83235H51.3481C51.2622 9.54664 51.208 9.22828 51.1763 8.91808C50.6068 9.61195 49.6033 9.98745 48.1705 9.98745C45.1827 9.98745 43.5193 7.95075 43.5193 5.3059C43.5193 2.51411 45.3183 0.412109 48.5592 0.412109C51.208 0.412109 52.7629 1.75902 53.0115 3.34675H50.7876C50.5752 2.72635 50.0327 1.98759 48.5276 1.98759C46.4167 1.98759 45.8155 3.58348 45.8155 5.22019C45.8155 6.85689 46.5026 8.39156 48.5456 8.39156C50.4486 8.39156 50.7966 7.19975 50.7966 6.36711V6.28139H48.5411V4.63653H52.9753V9.83235H52.9798Z"
    fill="#1EBBEF" />
  <path
    d="M54.9099 4.75078C54.9099 4.05691 54.9099 3.4406 54.8963 2.86102H56.9936C57.0207 3.01612 57.0479 3.70998 57.0479 4.08548C57.3869 3.28958 58.214 2.70592 59.5249 2.69775V4.53854C57.9745 4.5018 57.0479 4.87731 57.0479 6.79156V9.83232H54.9099V4.75078Z"
    fill="#1EBBEF" />
  <path
    d="M67.8373 6.33443C67.8373 8.44459 66.4406 9.99559 63.9952 9.99559C61.5499 9.99559 60.2029 8.45276 60.2029 6.37116C60.2029 4.28956 61.6448 2.69775 64.0947 2.69775C66.3683 2.69775 67.8373 4.14671 67.8373 6.33443ZM62.3725 6.34667C62.3725 7.6895 63.0144 8.48541 64.0404 8.48541C65.0665 8.48541 65.6677 7.6895 65.6677 6.35891C65.6677 4.89772 65.0755 4.20793 64.0088 4.20793C63.0189 4.20793 62.368 4.86915 62.368 6.34667H62.3725Z"
    fill="#1EBBEF" />
  <path
    d="M76.1045 7.80769C76.1045 8.48115 76.1045 9.21175 76.1181 9.83215H74.0253C73.9936 9.6444 73.9801 9.27297 73.9665 9.02808C73.51 9.72603 72.8274 9.99541 71.8421 9.99541C70.2691 9.99541 69.2656 9.13012 69.2656 7.40362V2.86084H71.4036V7.01587C71.4036 7.78728 71.6658 8.42401 72.5924 8.42401C73.5687 8.42401 73.971 7.95463 73.971 6.57506V2.86084H76.109V7.80769H76.1045Z"
    fill="#1EBBEF" />
  <path
    d="M78.0436 4.6164C78.0436 4.02457 78.0436 3.37561 78.0301 2.86133H80.1003C80.1409 3.04092 80.1726 3.52662 80.1816 3.75111C80.4438 3.31438 81.0676 2.70215 82.4236 2.70215C83.974 2.70215 84.9819 3.64907 84.9819 5.40006V9.83672H82.8439V5.6123C82.8439 4.82864 82.5547 4.2613 81.61 4.2613C80.6653 4.2613 80.1816 4.71844 80.1816 5.94699V9.83264H78.0436V4.6164Z"
    fill="#1EBBEF" />
  <path
    d="M93.9588 0V7.91823C93.9588 8.55087 93.9588 9.19576 93.9724 9.83248H91.9158C91.8706 9.62432 91.8299 9.26515 91.8163 9.10596C91.4412 9.65289 90.7812 9.99574 89.6241 9.99574C87.6714 9.99574 86.4284 8.57944 86.4284 6.40397C86.4284 4.2285 87.7483 2.69791 89.936 2.69791C91.0479 2.69791 91.6446 3.05301 91.8163 3.36321V0H93.9543H93.9588ZM88.6297 6.35499C88.6297 7.71415 89.2173 8.44883 90.2614 8.44883C91.7305 8.44883 91.9022 7.34273 91.9022 6.33867C91.9022 5.14685 91.7169 4.24482 90.3202 4.24482C89.1992 4.24482 88.6297 5.03665 88.6297 6.35499Z"
    fill="#1EBBEF" />
  <path
    d="M97.3308 2.86084C98.0269 5.66079 98.4066 7.2526 98.5512 8.11789H98.5783C98.7366 7.34239 98.958 6.24854 99.8982 2.86084H101.887C102.764 6.28935 103.022 7.2975 103.13 8.0485H103.144C103.302 7.33015 103.537 6.28527 104.436 2.86084H106.552L104.26 9.83215H101.968C101.336 7.1873 100.969 5.79548 100.793 4.87713H100.78C100.658 5.75059 100.242 7.33015 99.5592 9.83215H97.2585L95.0663 2.86084H97.3263H97.3308Z"
    fill="#1EBBEF" />
  <path
    d="M113.802 8.03278C113.802 8.69807 113.861 9.6654 113.906 9.83275H111.863C111.804 9.69397 111.759 9.32663 111.754 9.15113C111.474 9.54296 110.95 9.99601 109.585 9.99601C107.722 9.99601 106.936 8.88991 106.936 7.80829C106.936 6.22057 108.346 5.48588 110.611 5.48588H111.714V5.0614C111.714 4.56753 111.515 4.07775 110.525 4.07775C109.621 4.07775 109.427 4.42468 109.327 4.93079H107.293C107.411 3.69 108.256 2.69002 110.606 2.70226C112.676 2.7145 113.802 3.4451 113.802 5.10222V8.03278ZM111.718 6.66137H110.846C109.558 6.66137 109.078 7.01647 109.078 7.68993C109.078 8.19604 109.422 8.62052 110.19 8.62052C111.546 8.62052 111.718 7.76748 111.718 6.84505V6.66137Z"
    fill="#1EBBEF" />
  <path
    d="M114.837 2.86095H116.026V0.971191H118.164V2.86095H119.678V4.31399H118.164V7.75475C118.164 8.28535 118.345 8.48943 118.982 8.48943C119.1 8.48943 119.307 8.48943 119.47 8.46902V9.79553C119.045 9.92614 118.467 9.93022 118.033 9.93022C116.528 9.93022 116.03 9.2037 116.03 7.98331V4.30991H114.842V2.85687L114.837 2.86095Z"
    fill="#1EBBEF" />
  <path
    d="M122.557 6.75922C122.557 7.63267 123.041 8.48572 124.108 8.48572C124.998 8.48572 125.251 8.16328 125.455 7.74288H127.593C127.317 8.59592 126.476 9.99998 124.049 9.99998C121.622 9.99998 120.401 8.28164 120.401 6.4531C120.401 4.26539 121.644 2.70215 124.126 2.70215C126.779 2.70215 127.679 4.43273 127.679 6.17556C127.679 6.41229 127.679 6.56331 127.651 6.7633H122.557V6.75922ZM125.541 5.57557C125.527 4.76334 125.165 4.08172 124.126 4.08172C123.086 4.08172 122.688 4.71844 122.603 5.57557H125.541Z"
    fill="#1EBBEF" />
  <path
    d="M129.179 4.75078C129.179 4.05691 129.179 3.4406 129.166 2.86102H131.263C131.29 3.01612 131.317 3.70998 131.317 4.08548C131.656 3.28958 132.483 2.70592 133.794 2.69775V4.53854C132.244 4.5018 131.317 4.87731 131.317 6.79156V9.83232H129.179V4.75078Z"
    fill="#1EBBEF" />
  <path d="M140.986 2.19174H137.862V0.546875H146.328V2.19174H143.214V9.83243H140.99V2.19174H140.986Z" fill="#1EBBEF" />
  <path
    d="M147.807 6.75922C147.807 7.63267 148.29 8.48572 149.357 8.48572C150.247 8.48572 150.5 8.16328 150.704 7.74288H152.842C152.566 8.59592 151.725 9.99998 149.298 9.99998C146.871 9.99998 145.65 8.28164 145.65 6.4531C145.65 4.26539 146.893 2.70215 149.375 2.70215C152.028 2.70215 152.928 4.43273 152.928 6.17556C152.928 6.41229 152.928 6.56331 152.901 6.7633H147.807V6.75922ZM150.79 5.57557C150.776 4.76334 150.415 4.08172 149.375 4.08172C148.335 4.08172 147.938 4.71844 147.852 5.57557H150.79Z"
    fill="#1EBBEF" />
  <path
    d="M161.204 7.57961C160.937 8.74286 160.033 9.9959 157.733 9.9959C155.432 9.9959 154.094 8.49388 154.094 6.40004C154.094 4.3062 155.486 2.70215 157.837 2.70215C160.44 2.70215 161.163 4.38783 161.204 5.17966H159.116C158.985 4.61232 158.628 4.21641 157.791 4.21641C156.815 4.21641 156.259 4.9919 156.259 6.3429C156.259 7.82859 156.847 8.50205 157.782 8.50205C158.515 8.50205 158.912 8.11022 159.102 7.58778H161.204V7.57961Z"
    fill="#1EBBEF" />
  <path
    d="M164.653 0V3.68565C164.992 3.2326 165.616 2.70199 166.863 2.70199C168.305 2.70199 169.449 3.47341 169.449 5.36317V9.83656H167.324V5.64888C167.324 4.74277 166.967 4.26115 166.072 4.26115C164.883 4.26115 164.653 5.06114 164.653 6.13459V9.83248H162.515V0H164.653Z"
    fill="#1EBBEF" />
</svg>
