<svg width="255" height="50" viewBox="0 0 255 50" fill="none" xmlns="http://www.w3.org/2000/svg">
  <path
    d="M50.0942 16.1508L39.9779 6.03455C39.155 5.21165 37.7508 5.793 37.7508 6.9557V25.9396H37.7221C37.4273 31.839 32.5473 36.5348 26.5496 36.5348C20.5519 36.5348 15.6718 31.839 15.3771 25.9396H15.3484V6.95979C15.3484 5.7971 13.9442 5.21575 13.1213 6.03864L3.00909 16.1508C-1.00303 20.1629 -1.00303 26.7338 3.00909 30.7459L19.2541 46.9909C23.2662 51.003 29.8371 51.003 33.8492 46.9909L50.0942 30.7459C54.1063 26.7338 54.1063 20.1629 50.0942 16.1508Z"
    fill="#59423C" />
  <path
    d="M26.959 21.9438V16.3351L28.2527 15.6063L28.2772 13.0189L28.2527 13.0025V9.73963L28.2772 7.15222L26.0501 5.83395L23.7943 7.10719L23.7697 9.69459L23.8066 9.71506C23.7779 9.70688 23.7616 9.70278 23.7697 9.69459V15.5613L25.1863 16.4006V21.9479H20.8958V11.2339L22.1895 10.5052L22.214 7.9178L19.9869 6.59953L17.7311 7.87276L17.7065 10.4602L19.1231 11.2994V21.9479H17.1211V25.5261H17.1457C17.3954 30.1482 21.5058 33.8328 26.5537 33.8328C31.6016 33.8328 35.7119 30.1523 35.9617 25.5261H35.9862V21.9479H26.959V21.9438Z"
    fill="#18BBEF" />
  <path d="M22.1895 3.90567L22.2181 1.31827L19.9869 0L17.7352 1.27323L17.7065 3.86064L19.9378 5.17891L22.1895 3.90567Z"
    fill="#18BBEF" />
  <path
    d="M71.1619 44.1006C70.7893 45.8364 69.4793 47.1055 67.1457 47.1055C64.1898 47.1055 62.7938 45.0135 62.7938 42.3647C62.7938 39.7159 64.2349 37.5215 67.2398 37.5215C69.7208 37.5215 70.9244 38.979 71.1496 40.5347H69.1354C68.9429 39.8182 68.4394 39.1018 67.1743 39.1018C65.5122 39.1018 64.8735 40.5961 64.8735 42.291C64.8735 43.8672 65.4303 45.5253 67.2317 45.5253C68.5458 45.5253 68.9593 44.6451 69.1354 44.1006H71.1619Z"
    fill="#1EBBEF" />
  <path d="M72.431 46.9745V37.1121H74.3675V46.9745H72.431Z" fill="#1EBBEF" />
  <path
    d="M77.6468 43.8918C77.6468 44.7679 78.0849 45.6194 79.051 45.6194C79.8576 45.6194 80.0868 45.296 80.2711 44.8743H82.2075C81.9578 45.73 81.1963 47.1383 78.9978 47.1383C76.7994 47.1383 75.694 45.4147 75.694 43.5806C75.694 41.3862 76.8198 39.8182 79.0674 39.8182C81.4706 39.8182 82.2853 41.5541 82.2853 43.3022C82.2853 43.5397 82.2853 43.6912 82.2607 43.8918H77.6468ZM80.3488 42.7004C80.3366 41.8857 80.009 41.202 79.0674 41.202C78.1258 41.202 77.7655 41.8407 77.6877 42.7004H80.3488Z"
    fill="#1EBBEF" />
  <path
    d="M89.4047 45.165C89.4047 45.8323 89.458 46.8026 89.4989 46.9704H87.6484C87.5952 46.8313 87.5543 46.4628 87.5502 46.2867C87.2963 46.6798 86.8214 47.1342 85.5851 47.1342C83.8983 47.1342 83.186 46.0247 83.186 44.9398C83.186 43.3473 84.4633 42.6103 86.5144 42.6103H87.5133V42.1846C87.5133 41.6892 87.3332 41.1979 86.4366 41.1979C85.6178 41.1979 85.4418 41.5459 85.3517 42.0495H83.5094C83.6158 40.8049 84.3814 39.8019 86.5103 39.8141C88.3853 39.8264 89.4047 40.5592 89.4047 42.2214V45.1609V45.165ZM87.5174 43.7894H86.7273C85.5605 43.7894 85.1265 44.1456 85.1265 44.8211C85.1265 45.3288 85.4377 45.7545 86.1336 45.7545C87.3659 45.7545 87.5174 44.8989 87.5174 43.9736V43.7894Z"
    fill="#1EBBEF" />
  <path
    d="M91.1652 41.7424C91.1652 41.1488 91.1652 40.4978 91.1529 39.982H93.0279C93.0648 40.1621 93.0934 40.6493 93.1016 40.8745C93.3391 40.4364 93.9041 39.8223 95.1322 39.8223C96.5365 39.8223 97.4494 40.7721 97.4494 42.5285V46.9786H95.513V42.7454C95.513 41.9594 95.251 41.3903 94.3953 41.3903C93.5397 41.3903 93.1016 41.8489 93.1016 43.0812V46.9786H91.1652V41.7465V41.7424Z"
    fill="#1EBBEF" />
  <path
    d="M110.78 46.9745H109.302C109.224 46.688 109.175 46.3686 109.146 46.0575C108.63 46.7535 107.721 47.1301 106.424 47.1301C103.717 47.1301 102.211 45.0872 102.211 42.4343C102.211 39.634 103.84 37.5256 106.776 37.5256C109.175 37.5256 110.583 38.8766 110.808 40.4651H108.794C108.602 39.8428 108.11 39.1018 106.747 39.1018C104.835 39.1018 104.291 40.7025 104.291 42.3442C104.291 43.9859 104.913 45.5253 106.763 45.5253C108.487 45.5253 108.802 44.3298 108.802 43.4947V43.4087H106.759V41.7588H110.775V46.9705L110.78 46.9745Z"
    fill="#1EBBEF" />
  <path
    d="M112.528 41.8775C112.528 41.1815 112.528 40.5633 112.515 39.982H114.415C114.44 40.1376 114.464 40.8335 114.464 41.2102C114.771 40.4119 115.52 39.8264 116.708 39.8223V41.6687C115.303 41.6319 114.464 42.0126 114.464 43.9286V46.9786H112.528V41.8816V41.8775Z"
    fill="#1EBBEF" />
  <path
    d="M124.236 43.4619C124.236 45.5785 122.971 47.1342 120.757 47.1342C118.542 47.1342 117.322 45.5867 117.322 43.4987C117.322 41.4108 118.628 39.8141 120.847 39.8141C122.906 39.8141 124.236 41.2675 124.236 43.4578V43.4619ZM119.287 43.4742C119.287 44.8211 119.868 45.6194 120.798 45.6194C121.727 45.6194 122.271 44.8211 122.271 43.4865C122.271 42.0208 121.735 41.3289 120.769 41.3289C119.872 41.3289 119.283 41.9922 119.283 43.4742H119.287Z"
    fill="#1EBBEF" />
  <path
    d="M131.724 44.9398C131.724 45.6153 131.724 46.3482 131.737 46.9705H129.841C129.812 46.7821 129.8 46.4096 129.788 46.1639C129.374 46.864 128.756 47.1342 127.864 47.1342C126.439 47.1342 125.53 46.2663 125.53 44.5345V39.9779H127.467V44.1456C127.467 44.9194 127.704 45.558 128.543 45.558C129.428 45.558 129.792 45.0872 129.792 43.7034V39.982H131.728V44.9439L131.724 44.9398Z"
    fill="#1EBBEF" />
  <path
    d="M133.481 41.7424C133.481 41.1488 133.481 40.4978 133.468 39.982H135.343C135.38 40.1621 135.409 40.6493 135.417 40.8745C135.655 40.4364 136.22 39.8223 137.448 39.8223C138.852 39.8223 139.765 40.7721 139.765 42.5285V46.9786H137.829V42.7454C137.829 41.9594 137.567 41.3903 136.711 41.3903C135.855 41.3903 135.417 41.8489 135.417 43.0812V46.9786H133.481V41.7465V41.7424Z"
    fill="#1EBBEF" />
  <path
    d="M147.896 37.108V45.0504C147.896 45.6849 147.896 46.3318 147.908 46.9705H146.045C146.004 46.7617 145.967 46.3973 145.955 46.2376C145.615 46.7903 145.018 47.1301 143.97 47.1301C142.201 47.1301 141.075 45.7095 141.075 43.5274C141.075 41.3453 142.271 39.81 144.252 39.81C145.259 39.81 145.8 40.1662 145.955 40.4774V37.0998H147.892L147.896 37.108ZM143.069 43.4824C143.069 44.8457 143.601 45.5826 144.547 45.5826C145.877 45.5826 146.033 44.4731 146.033 43.466C146.033 42.2705 145.865 41.3658 144.6 41.3658C143.585 41.3658 143.069 42.16 143.069 43.4824Z"
    fill="#1EBBEF" />
  <path
    d="M150.95 39.9779C151.58 42.7864 151.924 44.383 152.055 45.251H152.08C152.223 44.4731 152.424 43.3759 153.275 39.9779H155.077C155.871 43.4169 156.104 44.4281 156.202 45.1814H156.215C156.358 44.4608 156.571 43.4128 157.386 39.9779H159.302L157.226 46.9705H155.15C154.577 44.3175 154.246 42.9174 154.086 42.0003H154.074C153.963 42.8765 153.586 44.4608 152.968 46.9705H150.884L148.899 39.9779H150.946H150.95Z"
    fill="#1EBBEF" />
  <path
    d="M165.868 45.165C165.868 45.8323 165.922 46.8026 165.963 46.9704H164.112C164.059 46.8313 164.018 46.4628 164.014 46.2867C163.76 46.6798 163.285 47.1342 162.049 47.1342C160.362 47.1342 159.65 46.0247 159.65 44.9398C159.65 43.3473 160.927 42.6103 162.978 42.6103H163.977V42.1846C163.977 41.6892 163.797 41.1979 162.9 41.1979C162.081 41.1979 161.905 41.5459 161.815 42.0495H159.973C160.079 40.8049 160.845 39.8019 162.974 39.8141C164.849 39.8264 165.868 40.5592 165.868 42.2214V45.1609V45.165ZM163.981 43.7894H163.191C162.024 43.7894 161.59 44.1456 161.59 44.8211C161.59 45.3288 161.901 45.7545 162.597 45.7545C163.825 45.7545 163.981 44.8989 163.981 43.9736V43.7894Z"
    fill="#1EBBEF" />
  <path
    d="M166.806 39.9779H167.883V38.0865H169.819V39.9779H171.191V41.4354H169.819V44.8866C169.819 45.4188 169.983 45.6235 170.56 45.6235C170.667 45.6235 170.855 45.6235 171.002 45.6031V46.9336C170.617 47.0646 170.093 47.0687 169.7 47.0687C168.337 47.0687 167.887 46.34 167.887 45.1159V41.4354H166.81V39.9779H166.806Z"
    fill="#1EBBEF" />
  <path
    d="M173.794 43.8918C173.794 44.7679 174.232 45.6194 175.199 45.6194C176.005 45.6194 176.234 45.296 176.419 44.8743H178.355C178.105 45.73 177.344 47.1383 175.145 47.1383C172.947 47.1383 171.841 45.4147 171.841 43.5806C171.841 41.3862 172.967 39.8182 175.215 39.8182C177.618 39.8182 178.433 41.5541 178.433 43.3022C178.433 43.5397 178.433 43.6912 178.408 43.8918H173.794ZM176.496 42.7004C176.484 41.8857 176.157 41.202 175.215 41.202C174.273 41.202 173.913 41.8407 173.835 42.7004H176.496Z"
    fill="#1EBBEF" />
  <path
    d="M179.792 41.8775C179.792 41.1815 179.792 40.5633 179.78 39.982H181.679C181.704 40.1376 181.729 40.8335 181.729 41.2102C182.036 40.4119 182.785 39.8264 183.972 39.8223V41.6687C182.568 41.6319 181.729 42.0126 181.729 43.9286V46.9786H179.792V41.8816V41.8775Z"
    fill="#1EBBEF" />
  <path d="M190.486 39.3065H187.657V37.6566H195.325V39.3065H192.504V46.9704H190.49V39.3065H190.486Z" fill="#1EBBEF" />
  <path
    d="M196.668 43.8918C196.668 44.7679 197.106 45.6194 198.072 45.6194C198.878 45.6194 199.108 45.296 199.292 44.8743H201.228C200.978 45.73 200.217 47.1383 198.019 47.1383C195.82 47.1383 194.715 45.4147 194.715 43.5806C194.715 41.3862 195.841 39.8182 198.088 39.8182C200.491 39.8182 201.306 41.5541 201.306 43.3022C201.306 43.5397 201.306 43.6912 201.281 43.8918H196.668ZM199.37 42.7004C199.357 41.8857 199.03 41.202 198.088 41.202C197.147 41.202 196.786 41.8407 196.708 42.7004H199.37Z"
    fill="#1EBBEF" />
  <path
    d="M208.802 44.7147C208.561 45.8814 207.742 47.1383 205.658 47.1383C203.574 47.1383 202.362 45.6317 202.362 43.5315C202.362 41.4313 203.623 39.8223 205.752 39.8223C208.11 39.8223 208.765 41.5131 208.802 42.3074H206.911C206.792 41.7383 206.469 41.3412 205.711 41.3412C204.827 41.3412 204.323 42.1191 204.323 43.4742C204.323 44.9644 204.855 45.6399 205.703 45.6399C206.366 45.6399 206.726 45.2469 206.898 44.7228H208.802V44.7147Z"
    fill="#1EBBEF" />
  <path
    d="M211.926 37.108V40.8049C212.233 40.3504 212.798 39.8182 213.928 39.8182C215.234 39.8182 216.27 40.5879 216.27 42.4875V46.9745H214.345V42.7782C214.345 41.8693 214.022 41.3862 213.211 41.3862C212.135 41.3862 211.926 42.1887 211.926 43.2654V46.9745H209.989V37.1121H211.926V37.108Z"
    fill="#1EBBEF" />
  <path
    d="M80.9301 27.0368L70.9326 29.2189L62.0855 27.2497V23.0983L70.9326 25.0676L75.8127 23.9786V19.3114L62.4498 16.2818V6.16557L72.083 4.07353L80.5658 5.95268V10.104L72.083 8.22485L67.5673 9.3466V13.1622L80.9301 16.1631V27.0409V27.0368Z"
    fill="#5A433D" />
  <path
    d="M84.4428 12.1019L92.0494 10.4356L101.351 12.4048V27.2497L92.2009 29.2189L83.5053 27.2497V19.0985L91.7178 17.3708L96.3236 17.8867V15.2502L92.0494 14.4027L84.4428 16.0403V12.1019ZM88.5327 21.7064V24.3716L92.1968 25.219L96.3195 24.3716V21.6163L91.7137 21.1005L88.5327 21.7064Z"
    fill="#5A433D" />
  <path
    d="M109.121 21.8579V24.3429L113.211 25.2231L121.301 23.6469V27.6468L113.211 29.223L104.061 27.2537V12.4376L113.273 10.4397L121.788 12.2861V21.8579H109.126H109.121ZM109.121 18.0996H116.728V15.1601L113.273 14.4027L109.121 15.2829V18.0996Z"
    fill="#5A433D" />
  <path
    d="M133.759 28.613V15.1928L131.364 14.5255L129.333 15.1314V28.613H124.363V12.5276L131.36 10.4356L136.24 11.8276L141.12 10.4356L148.117 12.5276V28.6171H143.147V15.1314L141.116 14.5255L138.721 15.1928V28.613H133.751H133.759Z"
    fill="#5A433D" />
  <path
    d="M160.243 28.613V15.1928L157.848 14.5255L155.818 15.1314V28.613H150.847V12.5276L157.844 10.4356L162.724 11.8276L167.604 10.4356L174.601 12.5276V28.6171H169.631V15.1314L167.6 14.5255L165.205 15.1928V28.613H160.235H160.243Z"
    fill="#5A433D" />
  <path
    d="M194.968 11.0415V27.2824L186.15 29.223L177.332 27.2824V11.0415H182.392V24.3102L186.15 25.129L189.908 24.3102V11.0415H194.968Z"
    fill="#5A433D" />
  <path d="M202.743 3.46762V28.5843H197.683V3.46762H202.743Z" fill="#5A433D" />
  <path
    d="M217.838 28.2813L211.566 29.2189L208.233 28.4901V14.9799H204.929V11.0415H208.233V6.49718H213.26V11.0415H217.776V14.9799H213.26V25.0102L217.833 24.3429V28.2813H217.838Z"
    fill="#5A433D" />
  <path
    d="M225.391 21.8579V24.3429L229.481 25.2231L237.571 23.6469V27.6468L229.481 29.223L220.331 27.2537V12.4376L229.542 10.4397L238.058 12.2861V21.8579H225.395H225.391ZM225.391 18.0996H232.998V15.1601L229.542 14.4027L225.391 15.2829V18.0996Z"
    fill="#5A433D" />
  <path
    d="M254.512 16.073L249.816 15.1642L245.693 17.4077V28.5884H240.633V10.9187H245.693V12.978L249.816 10.8286L254.512 11.7662V16.0689V16.073Z"
    fill="#5A433D" />
</svg>
