<svg width="72" height="25" viewBox="0 0 72 25" fill="none" xmlns="http://www.w3.org/2000/svg">
  <path
    d="M25.0471 8.07516L19.9889 3.01702C19.5775 2.60558 18.8754 2.89625 18.8754 3.4776V12.9695H18.861C18.7137 15.9193 16.2736 18.2672 13.2748 18.2672C10.2759 18.2672 7.83591 15.9193 7.68853 12.9695H7.6742V3.47964C7.6742 2.8983 6.97208 2.60762 6.56063 3.01907L1.50454 8.07516C-0.501515 10.0812 -0.501515 13.3666 1.50454 15.3727L9.62704 23.4952C11.6331 25.5013 14.9185 25.5013 16.9246 23.4952L25.0471 15.3727C27.0531 13.3666 27.0531 10.0812 25.0471 8.07516Z"
    fill="#59423C" />
  <path
    d="M13.4795 10.9719V8.16755L14.1263 7.80318L14.1386 6.50948L14.1263 6.50129V4.86983L14.1386 3.57613L13.0251 2.91699L11.8972 3.55361L11.8849 4.84731L11.9033 4.85755C11.889 4.85345 11.8808 4.85141 11.8849 4.84731V7.78066L12.5931 8.2003V10.974H10.4479V5.61698L11.0947 5.25262L11.107 3.95891L9.99345 3.29978L8.86555 3.9364L8.85327 5.2301L9.56153 5.64974V10.974H8.56055V12.7631H8.57283C8.6977 15.0741 10.7529 16.9164 13.2768 16.9164C15.8008 16.9164 17.856 15.0762 17.9808 12.7631H17.9931V10.974H13.4795V10.9719Z"
    fill="#18BBEF" />
  <path d="M11.0947 1.95284L11.1091 0.659134L9.99345 0L8.8676 0.636617L8.85327 1.93032L9.96889 2.58945L11.0947 1.95284Z"
    fill="#18BBEF" />
  <path
    d="M37.4621 13.0495H35.4929L34.1439 11.201L32.795 13.0495H30.7951V11.0659H31.5524L32.9301 9.17246V5.57998H35.3537V9.17042L36.7313 11.0639H37.458V13.0474L37.4621 13.0495ZM38.2502 19.8824L32.8277 18.7012V14.0054H43.6748V18.7012L38.2523 19.8824H38.2502ZM38.2502 17.8824L41.2654 17.2315V15.9439H35.237V17.2315L38.2523 17.8824H38.2502ZM43.6727 13.3217H41.3105V10.2164H40.3566V13.246H37.9943V5.45921H40.3566V8.18581H41.3105V5.36914H43.6727V13.3217Z"
    fill="#5A433D" />
  <path
    d="M46.168 14.9431V13.2625H50.2272V12.6709H44.9255V10.8982H58.059V12.6709H52.7716V13.2625H56.8308V16.9737H48.651V17.4589L51.4984 18.0648L55.1339 17.3524H56.8452V18.8222L51.4984 19.8682L46.166 18.7178V15.416H54.3458V14.9472H46.166L46.168 14.9431ZM56.8329 5.71729V10.3537H46.168V5.71729H56.8329ZM54.3192 8.59537V7.47361H48.6838V8.59537H54.3192Z"
    fill="#5A433D" />
  <path
    d="M66.8079 17.4568H59.4612V6.02018H66.505V8.0201H62.0056V10.3987H66.1263V12.3536H62.0056V15.4589H66.8079V17.4588V17.4568ZM68.8836 5.36719H71.4444V19.5181H68.8836V12.3372H66.9V10.3373H68.8836V5.36923V5.36719Z"
    fill="#5A433D" />
</svg>
