<svg width="38" height="38" viewBox="0 0 38 38" fill="none" xmlns="http://www.w3.org/2000/svg">
  <path d="M15 10C13.6739 10 12.4021 10.4864 11.4645 11.3523C10.5268 12.2182 10 13.3925 10 14.617L10 22.0043C10 23.2288 10.5268 24.4032 11.4645 25.269C12.4021 26.1349 13.6739 26.6213 15 26.6213H23C24.3261 26.6213 25.5979 26.1349 26.5355 25.269C27.4732 24.4032 28 23.2288 28 22.0043V14.617C28 13.3925 27.4732 12.2182 26.5355 11.3523C25.5979 10.4864 24.3261 10 23 10H15ZM15 11.8468H23C23.7956 11.8468 24.5587 12.1387 25.1213 12.6582C25.6839 13.1777 26 13.8823 26 14.617V22.0043C26 22.739 25.6839 23.4436 25.1213 23.9631C24.5587 24.4827 23.7956 24.7745 23 24.7745H15C14.2044 24.7745 13.4413 24.4827 12.8787 23.9631C12.3161 23.4436 12 22.739 12 22.0043V14.617C12 13.8823 12.3161 13.1777 12.8787 12.6582C13.4413 12.1387 14.2044 11.8468 15 11.8468ZM24 12.7702C23.8022 12.7702 23.6089 12.8244 23.4444 12.9258C23.28 13.0273 23.1518 13.1715 23.0761 13.3403C23.0004 13.509 22.9806 13.6947 23.0192 13.8738C23.0578 14.0529 23.153 14.2174 23.2929 14.3466C23.4327 14.4757 23.6109 14.5637 23.8049 14.5993C23.9989 14.6349 24.2 14.6166 24.3827 14.5467C24.5654 14.4769 24.7216 14.3585 24.8315 14.2066C24.9414 14.0548 25 13.8763 25 13.6936C25 13.4487 24.8946 13.2139 24.7071 13.0407C24.5196 12.8675 24.2652 12.7702 24 12.7702ZM19 13.6936C18.0111 13.6936 17.0444 13.9644 16.2221 14.4717C15.3999 14.9791 14.759 15.7002 14.3806 16.5438C14.0022 17.3875 13.9031 18.3158 14.0961 19.2114C14.289 20.107 14.7652 20.9297 15.4645 21.5754C16.1637 22.2211 17.0546 22.6608 18.0245 22.839C18.9945 23.0171 19.9998 22.9257 20.9134 22.5763C21.827 22.2268 22.6079 21.635 23.1573 20.8758C23.7068 20.1165 24 19.2238 24 18.3107C24 17.7044 23.8707 17.104 23.6194 16.5438C23.3681 15.9836 22.9998 15.4747 22.5355 15.0459C22.0712 14.6172 21.52 14.2771 20.9134 14.0451C20.3068 13.8131 19.6566 13.6936 19 13.6936ZM19 15.5404C19.5933 15.5404 20.1734 15.7029 20.6667 16.0073C21.1601 16.3117 21.5446 16.7444 21.7716 17.2506C21.9987 17.7567 22.0581 18.3137 21.9424 18.8511C21.8266 19.3885 21.5409 19.8821 21.1213 20.2695C20.7018 20.6569 20.1672 20.9208 19.5853 21.0277C19.0033 21.1346 18.4001 21.0797 17.8519 20.87C17.3038 20.6603 16.8352 20.3053 16.5056 19.8497C16.1759 19.3942 16 18.8586 16 18.3107C16 17.576 16.3161 16.8713 16.8787 16.3518C17.4413 15.8323 18.2044 15.5404 19 15.5404Z" fill="white"/>
</svg>
