<svg width="38" height="38" viewBox="0 0 38 38" fill="none" xmlns="http://www.w3.org/2000/svg">
  <path d="M21.6625 19.003C22.225 19.003 22.72 18.719 22.975 18.2896L25.66 13.7949C25.9375 13.3378 25.5775 12.7699 25.0075 12.7699H13.9075L13.2025 11.3848H10.75V12.7699H12.25L14.95 18.0265L13.9375 19.7163C13.39 20.6444 14.11 21.7733 15.25 21.7733H24.25V20.3881H15.25L16.075 19.003H21.6625ZM14.62 14.155H23.7325L21.6625 17.6179H16.3975L14.62 14.155ZM15.25 22.4658C14.425 22.4658 13.7575 23.0891 13.7575 23.851C13.7575 24.6128 14.425 25.2361 15.25 25.2361C16.075 25.2361 16.75 24.6128 16.75 23.851C16.75 23.0891 16.075 22.4658 15.25 22.4658ZM22.75 22.4658C21.925 22.4658 21.2575 23.0891 21.2575 23.851C21.2575 24.6128 21.925 25.2361 22.75 25.2361C23.575 25.2361 24.25 24.6128 24.25 23.851C24.25 23.0891 23.575 22.4658 22.75 22.4658Z" fill="white"/>
</svg>
