<svg width="38" height="38" viewBox="0 0 38 38" fill="none" xmlns="http://www.w3.org/2000/svg">
  <path d="M13.9282 16.6121C13.8056 16.6121 13.6857 16.6457 13.5837 16.7087C13.4817 16.7717 13.4022 16.8612 13.3553 16.9659C13.3084 17.0707 13.2961 17.1859 13.32 17.2971C13.3439 17.4083 13.403 17.5105 13.4897 17.5906C13.5765 17.6708 13.687 17.7254 13.8072 17.7475C13.9275 17.7696 14.0522 17.7583 14.1655 17.7149C14.2788 17.6715 14.3757 17.598 14.4438 17.5038C14.512 17.4095 14.5483 17.2987 14.5483 17.1853C14.5483 17.0333 14.483 16.8875 14.3667 16.78C14.2504 16.6725 14.0927 16.6121 13.9282 16.6121Z" fill="white"/>
  <path d="M20.0502 17.7859C20.4188 17.7859 20.7177 17.5097 20.7177 17.1689C20.7177 16.8282 20.4188 16.552 20.0502 16.552C19.6816 16.552 19.3828 16.8282 19.3828 17.1689C19.3828 17.5097 19.6816 17.7859 20.0502 17.7859Z" fill="white"/>
  <path d="M25.5924 10.9233H12.4076C11.7691 10.9233 11.1567 11.1576 10.7052 11.5745C10.2537 11.9915 10 12.557 10 13.1466V20.3723C10 20.962 10.2536 21.5276 10.7051 21.9447C11.1566 22.3619 11.769 22.5963 12.4076 22.5966H17.0651L18.6426 26.0425C18.6426 26.0425 18.7519 26.3406 19.0152 26.3406C19.2797 26.3406 19.3889 26.0425 19.3889 26.0425L20.9665 22.5966H25.5779C26.2165 22.5963 26.8289 22.3619 27.2804 21.9447C27.7319 21.5276 27.9855 20.962 27.9855 20.3723V13.1466C27.9855 12.5593 27.7338 11.9958 27.2855 11.5793C26.8371 11.1627 26.2284 10.9269 25.5924 10.9233V10.9233ZM15.655 17.3108C15.6477 18.632 14.1684 18.6689 14.1684 18.6689C14.0019 18.6692 13.8371 18.6383 13.6838 18.5782C13.5305 18.5182 13.392 18.4301 13.2765 18.3193V18.5569H12.1965V14.4555C12.2632 14.4656 13.2741 14.4555 13.2741 14.4555V16.0243C13.5277 15.6231 14.2594 15.6299 14.2594 15.6299C15.8552 15.7666 15.655 17.3108 15.655 17.3108ZM17.5517 15.7554V18.5647H16.4971V15.7845C16.4971 15.4057 15.9887 15.3004 15.9887 15.3004V14.3199C17.673 14.3838 17.5517 15.7554 17.5517 15.7554ZM20.0503 18.6689C19.0795 18.6689 18.2834 17.9966 18.2834 17.1662C18.2834 16.3358 19.0746 15.6646 20.0503 15.6646C21.026 15.6646 21.8172 16.337 21.8172 17.1662C21.8172 17.9955 21.026 18.6712 20.0503 18.6712V18.6689ZM25.8254 18.6689C25.8254 18.6689 25.8412 20.0966 24.2709 20.0966H23.7928V19.1732H24.0767C24.0767 19.1732 24.7369 19.2292 24.7284 18.2913C24.7284 18.2913 24.5998 18.6712 23.6751 18.6712C23.6751 18.6712 22.3621 18.5838 22.3621 17.4015V16.9533C22.3621 16.9533 22.3972 15.7285 23.834 15.6299C24.0088 15.6189 24.1839 15.6477 24.3438 15.7138C24.5038 15.7798 24.6437 15.881 24.7515 16.0086V15.7072H25.8206L25.8254 18.6689Z" fill="white"/>
  <path d="M24.1495 17.7712C24.5094 17.7712 24.8011 17.5016 24.8011 17.1689C24.8011 16.8363 24.5094 16.5667 24.1495 16.5667C23.7896 16.5667 23.4978 16.8363 23.4978 17.1689C23.4978 17.5016 23.7896 17.7712 24.1495 17.7712Z" fill="white"/>
</svg>
