<svg width="38" height="38" viewBox="0 0 38 38" fill="none" xmlns="http://www.w3.org/2000/svg">
  <path d="M27.6237 13.6667C27.5207 13.3143 27.3195 12.9929 27.0399 12.7348C26.7604 12.4766 26.4124 12.2908 26.0307 12.1957C24.6267 11.8467 19.0016 11.8467 19.0016 11.8467C19.0016 11.8467 13.3766 11.8467 11.9726 12.1957C11.5909 12.2908 11.2429 12.4766 10.9634 12.7348C10.6838 12.9929 10.4826 13.3143 10.3796 13.6667C10.1103 15.2639 9.9839 16.8789 10.0016 18.4952C9.9839 20.1116 10.1103 21.7266 10.3796 23.3238C10.4826 23.6762 10.6838 23.9976 10.9634 24.2557C11.2429 24.5138 11.5909 24.6997 11.9726 24.7947C13.3766 25.1438 19.0016 25.1438 19.0016 25.1438C19.0016 25.1438 24.6267 25.1438 26.0307 24.7947C26.4124 24.6997 26.7604 24.5138 27.0399 24.2557C27.3195 23.9976 27.5207 23.6762 27.6237 23.3238C27.893 21.7266 28.0194 20.1116 28.0017 18.4952C28.0194 16.8789 27.893 15.2639 27.6237 13.6667ZM17.2016 20.656V16.3345C17.2066 16.2639 17.231 16.1956 17.2725 16.1362C17.3141 16.0767 17.3713 16.028 17.4389 15.9947C17.5065 15.9614 17.5822 15.9446 17.6588 15.9459C17.7354 15.9472 17.8104 15.9665 17.8766 16.002L21.9267 18.1628C21.9938 18.1996 22.0494 18.2519 22.0881 18.3146C22.1267 18.3772 22.147 18.4481 22.147 18.5202C22.147 18.5923 22.1267 18.6631 22.0881 18.7258C22.0494 18.7884 21.9938 18.8407 21.9267 18.8775L17.8766 20.9884C17.8104 21.024 17.7354 21.0433 17.6588 21.0446C17.5822 21.0458 17.5065 21.029 17.4389 20.9957C17.3713 20.9624 17.3141 20.9138 17.2725 20.8543C17.231 20.7949 17.2066 20.7266 17.2016 20.656Z" fill="white"/>
</svg>
