<svg width="38" height="38" viewBox="0 0 38 38" fill="none" xmlns="http://www.w3.org/2000/svg">
  <path d="M19.0001 10C16.738 10.0113 14.5633 10.8127 12.9092 12.2448C11.255 13.6768 10.2426 15.6345 10.0735 17.728C9.90445 19.8216 10.5911 21.8974 11.9968 23.5423C13.4024 25.1872 15.424 26.2806 17.6591 26.6046V20.5658H15.4001V18.3524H17.6591V16.9075C17.6591 14.4936 18.9281 13.4328 21.0881 13.4328C21.6899 13.4263 22.2915 13.4598 22.8881 13.5331V15.4458H21.4571C20.5571 15.4458 20.2151 16.281 20.2151 17.1664V18.3524H22.9151L22.5461 20.5491H20.2151V26.6213C22.4647 26.3241 24.5099 25.2482 25.9401 23.6096C27.3704 21.9709 28.0798 19.8909 27.926 17.787C27.7722 15.683 26.7666 13.7109 25.111 12.2666C23.4554 10.8222 21.2723 10.0125 19.0001 10Z" fill="white"/>
</svg>
